# xmcd
#
# Track frame offsets:
#   150
#   11186
#   20739
#   34917
#   41117
#   52362
#   70566
#   84879
#   93642
#   111284
#   135201
#   144299
#   157600
#   170131
#   192307
#   206936
#   224852
#   247606
#   257437
#   274000
#   297827
#   313445
#   326536
#   335193
#   346889
#
# Disc length: 4772 seconds
#
# Revision: 0
# Processed by: cddbd v1.5PL3 Copyright (c) Steve Scherf et al.
# Submitted via: Media_Universe 3.0
#
DISCID=8112a219
DTITLE=David Allen Coe - David Allen Coe
DYEAR=1900
DGENRE=Country
TTITLE0=Don't Bite The Dick
TTITLE1=3 Biggest Lies
TTITLE2=One More Time
TTITLE3=Hot Wet Tight Bald Pussy
TTITLE4=Cowboys And Niggers
TTITLE5=Marijuanaville
TTITLE6=Beer Is Good For You
TTITLE7=Homo Truck Drivin'Man
TTITLE8=Masterbation Blues
TTITLE9=You Don't Have To Call Me Darlin'
TTITLE10=Move Them Niggers North
TTITLE11=Little Susie Swallow Throat
TTITLE12=Lets Get Drunk And Screw
TTITLE13=If That Ain't Country I'll Kiss Your Ass
TTITLE14=Where You Born An Asshole
TTITLE15=Finger Fuckin' Sally
TTITLE16=Damn  I Wish I Was A Nigger
TTITLE17=Nigger Hatin' Me
TTITLE18=Itty Bitty Titties
TTITLE19=You Never Even Called Me By My Name
TTITLE20=Pussy Whipped Again
TTITLE21=Pickem, Lickem, Stickem
TTITLE22=Dear Penis
TTITLE23=Devil Went Down To Jamaica
TTITLE24=Nigger Fucker
EXTD=
EXTT0=
EXTT1=
EXTT2=
EXTT3=
EXTT4=
EXTT5=
EXTT6=
EXTT7=
EXTT8=
EXTT9=
EXTT10=
EXTT11=
EXTT12=
EXTT13=
EXTT14=
EXTT15=
EXTT16=
EXTT17=
EXTT18=
EXTT19=
EXTT20=
EXTT21=
EXTT22=
EXTT23=
EXTT24=
PLAYORDER=
